<svg xmlns="http://www.w3.org/2000/svg" xmlns:xlink="http://www.w3.org/1999/xlink" enable-background="new 0 0 23.6 23.6" viewBox="0 0 23.6 23.6">
    <defs>
        <path id="1v0xw98dja" d="M0.1 0H23.700000000000003V23.6H0.1z"/>
    </defs>
    <clipPath id="h2gd35ve8b">
        <use overflow="visible" xlink:href="#1v0xw98dja"/>
    </clipPath>
    <path fill="#FFFFFF" d="M23.3 11.8c0 6.3-5.1 11.4-11.4 11.4C5.6 23.2.5 18.1.5 11.8S5.6.4 11.9.4c6.3 0 11.4 5.1 11.4 11.4" clip-path="url(#h2gd35ve8b)"/>
    <circle cx="11.9" cy="11.8" r="11.4" fill="none" stroke="#0080BC" stroke-miterlimit="10" stroke-width="0.75" clip-path="url(#h2gd35ve8b)"/>
    <path fill="#0080BC" d="M15.6 18.1c-2.6 0-4.7-2.1-4.7-4.7 0-2.5 1.9-4.5 4.3-4.7h.8c2.4.2 4.3 2.2 4.3 4.7.1 2.6-2.1 4.7-4.7 4.7m-.2-10.6h.5v.6h-.4v-.6zm-1-.7c0-.1.1-.2.2-.2h2.2c.1 0 .2.1.2.2s-.1.2-.2.2h-2.1c-.2-.1-.3-.2-.3-.2m2.1 1.3v-.6h.2c.4 0 .8-.3.8-.8 0-.4-.3-.8-.8-.8h-2.2c-.4 0-.8.4-.8.8s.3.8.8.8h.2v.6c-2.5.4-4.5 2.6-4.5 5.3 0 2.9 2.4 5.3 5.3 5.3s5.3-2.4 5.3-5.3c.2-2.6-1.8-4.8-4.3-5.3" clip-path="url(#h2gd35ve8b)"/>
    <path fill="#0080BC" d="M10.3 13.7l-.7-.5c-.1-.1-.2-.1-.3 0-.1.1-.2.1-.4.2-.1 0-.2.1-.2.2L8.5 15H7.4l-.2-1.4c0-.1-.1-.2-.2-.2s-.3-.1-.4-.2c-.1-.1-.2 0-.3 0l-1.2.9c-.1-.1-.2-.3-.4-.4-.1-.1-.2-.3-.4-.4l.9-1.2c.1-.1.1-.2 0-.3-.1-.1-.1-.3-.2-.4 0-.1-.1-.2-.2-.2L3.4 11V9.9l1.4-.2c.1 0 .2-.1.2-.2s.1-.3.2-.4c.1-.1 0-.2 0-.3l-.8-1.2c.1-.1.2-.3.3-.4.2-.1.3-.2.4-.3l1.2.9c.1.1.2.1.3 0 .2-.1.3-.2.4-.2.1 0 .2-.1.2-.2L7.4 6h1.1l.2 1.4c0 .1.1.2.2.2s.3.1.4.2c.1.1.2 0 .3 0l1.2-.9c.2.1.3.2.4.3.1.1.2.3.4.4l-.9 1.2c-.1.1-.1.2 0 .3.1.1.1.3.2.4 0 .1.1.2.2.2l.6.1c.2-.2.4-.4.6-.5l-.9-.1v-.1l.9-1.2c.1-.1.1-.3 0-.4-.2-.2-.4-.5-.5-.6-.2-.2-.4-.4-.6-.5-.1-.1-.3-.1-.4 0l-1.4.7h-.1l-.2-1.5c0-.1-.1-.2-.3-.3-.6-.1-1.1-.1-1.7 0-.1 0-.2.1-.2.3l-.3 1.5h-.1l-1.2-.9c-.1-.1-.3-.1-.4 0l-.6.6-.6.6c-.1.1-.1.3 0 .4L4.6 9v.1l-1.5.3c-.1 0-.2.1-.3.2-.1.6-.1 1.1 0 1.7 0 .1.1.2.3.3l1.5.2v.1l-.9 1.2c-.1.1-.1.3 0 .4.2.2.4.5.6.6.2.2.4.4.6.5.1.1.3.1.4 0l1.2-.9h.1l.2 1.5c0 .1.1.2.3.3.3 0 .6.1.8.1.3 0 .6 0 .8-.1.1 0 .2-.1.3-.3l.2-1.5h.1l1 .7c.1-.1 0-.4 0-.7" clip-path="url(#h2gd35ve8b)"/>
    <path fill="#0080BC" d="M9.2 11.7c-.3.3-.8.5-1.2.5-.5 0-.9-.2-1.2-.5-.7-.7-.7-1.8 0-2.4.3-.4.7-.6 1.2-.6s.9.2 1.2.5c.7.7.7 1.8 0 2.5M8 8.1c-.6 0-1.2.2-1.7.7-.9.9-.9 2.4 0 3.3.4.4 1 .7 1.7.7.6 0 1.2-.2 1.7-.7.9-.9.9-2.4 0-3.3-.5-.4-1.1-.7-1.7-.7M15.1 10c-.2 0-.4-.1-.4-.4 0-.2.1-.4.3-.5.2 0 .4.1.5.4 0 .2-.1.4-.4.5m2.2.3h-.2c-.2-.1-.3-.3-.2-.6.1-.2.3-.3.5-.2.2.1.3.3.2.5 0 .2-.2.3-.3.3m-4.2.6c-.1 0-.2 0-.3-.1-.1-.2-.1-.4 0-.6.2-.1.4-.1.6.1.1.2.1.4-.1.6 0-.1-.1 0-.2 0m5.8.8c-.1 0-.3-.1-.3-.2-.1-.2-.1-.4.1-.6.2-.1.4-.1.6.1.1.2.1.4-.1.6-.1.1-.2.1-.3.1m-7 1h-.1c-.2-.1-.3-.3-.3-.5.1-.2.3-.3.5-.3.2.1.3.3.3.5-.1.2-.2.3-.4.3m7.6 1.1c-.2 0-.4-.2-.4-.4s.2-.4.4-.4.4.2.4.4c.1.2-.1.4-.4.4m-7.6 1.1c-.2 0-.3-.1-.4-.3-.1-.2.1-.5.3-.5.2-.1.4 0 .5.3.1.2-.1.5-.3.5h-.1m7 1c-.1 0-.2 0-.2-.1-.2-.1-.2-.4-.1-.6.1-.2.4-.3.6-.1.2.1.3.4.1.6-.1.2-.2.2-.4.2m-5.8.9c-.1 0-.2 0-.3-.1-.2-.1-.2-.4 0-.6.1-.2.4-.2.6 0 .2.2.2.4 0 .6-.1 0-.2.1-.3.1m4.2.6c-.2 0-.3-.1-.4-.3-.1-.2 0-.5.2-.5.2-.1.5 0 .6.2.1.2 0 .4-.2.5-.1.1-.2.1-.2.1m-2.2.3c-.3 0-.5-.2-.4-.5 0-.2.2-.4.5-.4.2 0 .4.2.3.5 0 .2-.2.4-.4.4M15.6 13.8c-.2 0-.4-.2-.4-.4s.2-.4.4-.4.4.2.4.4-.1.4-.4.4m2.6-.7h-1.6c-.1-.4-.5-.7-.9-.7-.5 0-1 .4-1 1 0 .5.4 1 1 1 .4 0 .8-.3.9-.7h1.6c.2 0 .3-.1.3-.3 0-.2-.2-.3-.3-.3" clip-path="url(#h2gd35ve8b)"/>
</svg>
