<svg xmlns="http://www.w3.org/2000/svg" xmlns:xlink="http://www.w3.org/1999/xlink" enable-background="new 0 0 23.6 23.6" viewBox="0 0 23.6 23.6">
    <defs>
        <path id="mhcbd9gwba" d="M0 0H23.6V23.6H0z"/>
    </defs>
    <clipPath id="97m369ec6b">
        <use overflow="visible" xlink:href="#mhcbd9gwba"/>
    </clipPath>
    <path fill="#FFFFFF" d="M23.2 11.8c0 6.3-5.1 11.4-11.4 11.4S.4 18.1.4 11.8 5.5.4 11.8.4s11.4 5.1 11.4 11.4" clip-path="url(#97m369ec6b)"/>
    <circle cx="11.8" cy="11.8" r="11.4" fill="none" stroke="#0080BC" stroke-miterlimit="10" stroke-width="0.75" clip-path="url(#97m369ec6b)"/>
    <path fill="none" stroke="#0080BC" stroke-linecap="round" stroke-linejoin="round" stroke-miterlimit="10" stroke-width="0.5" d="M17.6 15.4v-4.9c0-.5-.4-.8-.8-.8h-.3c-.5 0-.8.4-.8.8v2c-.1 0-.1-.1-.2-.1V9.7c0-.5-.4-.8-.8-.8h-.3c-.5 0-.8.4-.8.8V12h-.1V9c0-.5-.4-.8-.8-.8h-.3c-.5 0-.8.4-.8.8v3.5c-.1 0-.1.1-.2.1V5.2c0-.5-.4-.8-.8-.8h-.3c-.5 0-.8.4-.8.8V14L8 13c-.4-.2-1.1-.6-1.6 0s-.1 1 .6 1.8 2.3 3 3.2 3.8c.8 1.1 2.1 1.8 3.5 1.8 2.4 0 4.3-1.9 4.3-4.2-.3-.3-.3-.5-.4-.8zM9.3 7.3C8.5 7 8 6.2 8 5.3 8 4 9 3 10.3 3s2.2 1 2.2 2.3c0 .9-.5 1.7-1.2 2m-2 .7c-1.2-.4-2-1.5-2-2.8 0-1.6 1.3-2.9 2.9-2.9 1.6 0 2.9 1.3 2.9 2.9 0 1.3-.8 2.4-1.9 2.8" clip-path="url(#97m369ec6b)"/>
</svg>
