<svg xmlns="http://www.w3.org/2000/svg" xmlns:xlink="http://www.w3.org/1999/xlink" enable-background="new 0 0 23.6 23.6" viewBox="0 0 23.6 23.6">
    <defs>
        <path id="9achcy2pva" d="M0 0H23.6V23.6H0z"/>
    </defs>
    <clipPath id="h2ymo38fdb">
        <use overflow="visible" xlink:href="#9achcy2pva"/>
    </clipPath>
    <path fill="#FFFFFF" d="M23.2 11.8c0 6.3-5.1 11.4-11.4 11.4S.4 18.1.4 11.8 5.5.4 11.8.4s11.4 5.1 11.4 11.4" clip-path="url(#h2ymo38fdb)"/>
    <circle cx="11.8" cy="11.8" r="11.4" fill="none" stroke="#0080BC" stroke-miterlimit="10" stroke-width="0.75" clip-path="url(#h2ymo38fdb)"/>
    <path fill="#0080BC" d="M9.4 18.2c.5.4 1.5.6 2.6.6s2.1-.2 2.6-.6c-.1-.6-.3-2.2.4-3.5.2-.4.4-.6.6-.9.6-.8 1.4-1.7 1.4-4.5 0-4.3-4.2-4.5-5-4.5H11.7c-1 0-4.4.3-4.9 4.5 0 .1-.1.7-1.3 2.6 0 0-.1.1-.1.2s.1.1.2.2c.5.3 1.1.5 1.1.5.1 0 .2.2.2.3 0 0-.2 1.5 0 2.2.1.3.7.5 1.7.5H8.9c.5 0 .7.3.7.5v1.9zm2.6 1.1c-1.4 0-2.5-.3-3-.8 0 0-.1-.1-.1-.2v-2h-.2-.2c-.8 0-2-.1-2.2-.9-.1-.6 0-1.7 0-2.2l-1-.5c-.3-.2-.4-.4-.4-.5-.1-.3.1-.6.1-.6 1.2-1.8 1.3-2.4 1.3-2.4.5-4.6 4.2-4.9 5.4-4.9h.4c.6 0 5.5.1 5.5 5 0 2.9-.8 3.9-1.5 4.7-.2.3-.4.5-.6.8-.7 1.6-.3 3.3-.3 3.3 0 .1 0 .2-.1.2-.6.7-1.7 1-3.1 1" clip-path="url(#h2ymo38fdb)"/>
    <path fill="#0080BC" d="M14 11.1c-.3.6-.5 1.2-.6 1.8H13c0-.3.1-.7.2-1.1.1-.6.2-1.1.2-1.4 0-.4-.2-.5-.3-.5-.2 0-.3.1-.5.3-.2.2-.4.4-.7.4-.2 0-.5-.2-.7-.4 0-.2-.2-.4-.3-.4-.1 0-.3.1-.3.5 0 .3.1.9.3 1.4.1.4.2.8.2 1.1h-.4c-.1-.6-.3-1.2-.6-1.8-.3-.6-.5-1.3-.5-1.8 0-1.4 1.2-2.6 2.6-2.6s2.6 1.1 2.6 2.6c-.2.6-.5 1.2-.8 1.9m-2.9-.5c.2.2.6.5.9.5.4 0 .7-.3.9-.5 0 .3-.1.7-.2 1.1-.1.4-.2.9-.2 1.2h-1c0-.3-.1-.7-.2-1.2-.1-.4-.2-.8-.2-1.1m.9-4.4c-1.7 0-3.1 1.4-3.1 3.1 0 .7.3 1.4.6 2 .3.6.5 1.3.5 1.8 0 .1.1.3.3.3h3.4c.1 0 .3-.1.3-.3 0-.6.3-1.2.6-1.9s.6-1.3.6-2c-.1-1.6-1.5-3-3.2-3M13.5 14.3h-2.9c-.1 0-.3-.1-.3-.3 0-.1.1-.3.3-.3h2.9c.1 0 .3.1.3.3-.1.2-.2.3-.3.3M13.2 15.3h-2.5c-.1 0-.3-.1-.3-.3 0-.1.1-.3.3-.3h2.5c.1 0 .3.1.3.3 0 .2-.1.3-.3.3M13 16.2h-2c-.1 0-.3-.1-.3-.3 0-.1.1-.3.3-.3h2c.1 0 .3.1.3.3-.1.2-.2.3-.3.3" clip-path="url(#h2ymo38fdb)"/>
</svg>
