<svg xmlns="http://www.w3.org/2000/svg" xmlns:xlink="http://www.w3.org/1999/xlink" enable-background="new 0 0 23.6 23.6" viewBox="0 0 23.6 23.6">
    <defs>
        <path id="fbew0ahnha" d="M0 0H23.6V23.6H0z"/>
    </defs>
    <clipPath id="yvpk60scrb">
        <use overflow="visible" xlink:href="#fbew0ahnha"/>
    </clipPath>
    <path fill="#FFFFFF" d="M23.2 11.8c0 6.3-5.1 11.4-11.4 11.4S.4 18.1.4 11.8 5.5.4 11.8.4s11.4 5.1 11.4 11.4" clip-path="url(#yvpk60scrb)"/>
    <circle cx="11.8" cy="11.8" r="11.4" fill="none" stroke="#0080BC" stroke-miterlimit="10" stroke-width="0.75" clip-path="url(#yvpk60scrb)"/>
    <path fill="#0080BC" d="M16.1 15.6c1.6-1.1 2.5-2.6 2.5-4.3S17.7 8 16.1 7c2.1.8 3.6 2.4 3.6 4.3s-1.5 3.5-3.6 4.3m-3.8.5c-.3 0-.6.1-1 .1-1 0-2-.2-2.9-.5-.4-.2-.8-.3-1.1-.6h-.1l-2.6 1.1 1.1-2.5C5.1 12.6 5 12 5 11.3 5 9.4 6.4 7.7 8.5 7c.9-.3 1.8-.5 2.8-.5.3 0 .6 0 1 .1 3.1.3 5.4 2.4 5.4 4.8.1 2.3-2.3 4.3-5.4 4.7m1-10.5h-1.9c-4 0-7.3 2.6-7.3 5.7 0 .7.2 1.4.5 2.1l-1.5 3.4c-.1.2 0 .4.1.5.1.1.2.1.3.1h.2L7.1 16c1.2.7 2.7 1.1 4.3 1.1h1.9c4 0 7.3-2.6 7.3-5.7 0-3.3-3.3-5.8-7.3-5.8" clip-path="url(#yvpk60scrb)"/>
    <path fill="#0080BC" d="M12.1 13.3c0-.1-.1-.2-.1-.4V10h-1.6v.8c.1 0 .1 0 .1.1s.1.2.1.3v1.7c0 .3-.1.5-.2.5v.8h1.8v-.8s0-.1-.1-.1M10.8 9.4c.1 0 .1.1.2.1h.8c.1 0 .2 0 .2-.1v-.2-.3c0-.2 0-.3-.1-.4-.1-.1-.3-.1-.6-.1h-.4c-.1 0-.2 0-.2.1-.1 0-.1.1-.1.2v.6c.1 0 .1.1.2.1" clip-path="url(#yvpk60scrb)"/>
</svg>
