<svg xmlns="http://www.w3.org/2000/svg" xmlns:xlink="http://www.w3.org/1999/xlink" enable-background="new 0 0 23.6 23.6" viewBox="0 0 23.6 23.6">
    <defs>
        <path id="g0zeaxkvxa" d="M0 0H23.6V23.6H0z"/>
    </defs>
    <clipPath id="a1lyb4wwbb">
        <use overflow="visible" xlink:href="#g0zeaxkvxa"/>
    </clipPath>
    <path fill="#FFFFFF" d="M23.2 11.8c0 6.3-5.1 11.4-11.4 11.4S.4 18.1.4 11.8 5.5.4 11.8.4s11.4 5.1 11.4 11.4" clip-path="url(#a1lyb4wwbb)"/>
    <circle cx="11.8" cy="11.8" r="11.4" fill="none" stroke="#0080BC" stroke-miterlimit="10" stroke-width="0.75" clip-path="url(#a1lyb4wwbb)"/>
    <path fill="none" stroke="#0080BC" stroke-linecap="round" stroke-miterlimit="10" stroke-width="0.5" d="M15.3 17l-1.7-.8.8-1.4 1.7.8-.8 1.4zm-.4-3.2c.3-.5.6-.8.9-1 .3-.2.8-.3 1.4-.4.4-.1.7-.2 1-.4.3-.2.5-.4.7-.7.2-.3.2-.6.2-.9-.1-.3-.3-.5-.6-.7-.3-.1-.6-.2-.9-.1-.3.1-.5.2-.7.6l-1.6-.8c.4-.7.9-1.1 1.6-1.2.7-.1 1.5 0 2.3.4.9.4 1.4 1 1.7 1.6.3.7.2 1.3-.2 2.1-.3.5-.6.8-1.1 1.1-.5.3-1.1.4-1.6.5-.3.1-.6.1-.8.3-.2.1-.3.4-.5.7l-1.8-1.1zm-5.5 2.4l-1.7.8-.7-1.4 1.7-.8.7 1.4zm-2.9-1.6c-.3-.5-.4-.9-.3-1.3 0-.3.2-.8.5-1.3.2-.3.3-.7.3-1 0-.3 0-.6-.2-.9-.1-.3-.3-.5-.6-.6-.3-.1-.6-.1-1 .1-.3.1-.5.3-.6.6-.1.3-.1.5.1.9l-1.7.6c-.4-.7-.4-1.4-.1-2 .3-.6.9-1.1 1.7-1.5.8-.3 1.6-.4 2.4-.3.7.2 1.3.7 1.6 1.4.2.5.3 1 .2 1.5-.1.5-.3 1-.6 1.5-.2.3-.2.6-.2.8 0 .2.1.5.3.8l-1.8.7zm6 .5h-1.9v-1.5h1.9v1.5zm-1.9-2.5c0-.6.1-1 .3-1.3.2-.3.5-.6 1.1-1 .3-.2.6-.5.7-.8.2-.2.3-.5.3-.9s-.1-.7-.3-.9c-.2-.2-.5-.3-.9-.3-.3 0-.6.1-.8.3-.2.2-.3.4-.3.8h-2c0-.8.3-1.4.8-1.8.6-.5 1.3-.7 2.2-.7 1 0 1.7.2 2.3.7.6.5.8 1.1.8 1.9 0 .5-.2 1-.5 1.5-.3.4-.7.8-1.2 1.1-.3.2-.4.4-.5.6-.1.2-.1.5-.1.8h-1.9z" clip-path="url(#a1lyb4wwbb)"/>
</svg>
