<svg xmlns="http://www.w3.org/2000/svg" xmlns:xlink="http://www.w3.org/1999/xlink" enable-background="new 0 0 23.6 23.6" viewBox="0 0 23.6 23.6">
    <defs>
        <path id="7xd9qpfm5a" d="M0 0H23.6V23.6H0z"/>
    </defs>
    <clipPath id="228kedjjqb">
        <use overflow="visible" xlink:href="#7xd9qpfm5a"/>
    </clipPath>
    <path fill="#FFFFFF" d="M23.2 11.8c0 6.3-5.1 11.4-11.4 11.4S.4 18.1.4 11.8 5.5.4 11.8.4s11.4 5.1 11.4 11.4" clip-path="url(#228kedjjqb)"/>
    <circle cx="11.8" cy="11.8" r="11.4" fill="none" stroke="#0080BC" stroke-miterlimit="10" stroke-width="0.75" clip-path="url(#228kedjjqb)"/>
    <path fill="#0080BC" d="M18.5 16.5l-1.9-1.9c-.1-.1-.2-.1-.3-.1l-1.4.5c-.1 0-.2.1-.2.2l-.5 1.5c0 .1 0 .2.1.3l1.9 1.9h-.1c-.7 0-1.3-.3-1.8-.8-.6-.7-.9-1.6-.6-2.5 0-.1 0-.2-.1-.3l-4.9-5c-.1-.1-.2-.1-.3-.1-.2.1-.5.1-.7.1-.7 0-1.3-.3-1.8-.7-.5-.5-.8-1.2-.7-2l1.8 2c.1.1.2.1.3.1l1.4-.5c.1 0 .2-.1.2-.2l.5-1.5c0-.1 0-.2-.1-.3L7.5 5.3c.7 0 1.4.2 1.9.7.6.7.9 1.6.6 2.5 0 .1 0 .2.1.3l4.9 5c.1.1.2.1.3.1.2-.1.5-.1.7-.1.7 0 1.3.3 1.8.7.5.6.7 1.3.7 2M16 13.2c-.2 0-.5 0-.7.1l-4.6-4.7c.2-1.1-.1-2.2-.8-3-.7-.6-1.5-1-2.3-1-.3 0-.6 0-.9.1-.1.1-.2.2-.2.3 0 .1 0 .2.1.3l2.2 2.2-.4 1.1-1.1.4-2.2-2.2c-.1-.1-.2-.1-.3-.1-.1 0-.2.1-.2.2-.3 1.1 0 2.3.8 3.2.6.6 1.4.9 2.2.9.2 0 .5 0 .7-.1l4.6 4.7c-.2 1.1.1 2.2.8 3 .6.6 1.4.9 2.2.9.3 0 .6 0 .9-.1.1 0 .2-.1.2-.2s0-.2-.1-.3l-2.2-2.2.4-1.1 1.1-.4 2.2 2.2c.1.1.2.1.3.1.1 0 .2-.1.2-.2.3-1.1 0-2.3-.8-3.2-.5-.6-1.3-.9-2.1-.9" clip-path="url(#228kedjjqb)"/>
    <path fill="#0080BC" d="M11.4 12.5c-.3-.3-.5-.6-.6-.8.2.1.5.3.8.6.3.3.5.6.6.8-.2-.1-.4-.3-.8-.6m-4.7 6.4c-.1 0-.4-.2-.7-.4l5.2-5.3c.2.2.4.4.7.5l-5.2 5.2zm-1.6-1.6l5.2-5.3c.1.2.3.5.5.7L5.6 18c-.3-.3-.5-.6-.5-.7m5.6-6.3c-.2 0-.3.1-.4.1l-5.7 5.8c-.4.4.1 1.2.7 1.8.4.4 1 .9 1.4.9.1 0 .3 0 .4-.1l5.7-5.8c.4-.4-.1-1.2-.7-1.8-.4-.5-1-.9-1.4-.9" clip-path="url(#228kedjjqb)"/>
    <path fill="#0080BC" d="M17.2 6.9l-.3-.3.7-1.1.8.8-1.2.6zm.5-2.2c-.1-.1-.2-.1-.3-.1-.1 0-.2.1-.2.2l-1 1.7c-.1.1-.1.3 0 .4l-5 5.2.6.6 5-5.2c.1.1.1.1.2.1h.2l1.7-1 .2-.2c0-.1 0-.2-.1-.3l-1.3-1.4z" clip-path="url(#228kedjjqb)"/>
</svg>
