<svg xmlns="http://www.w3.org/2000/svg" xmlns:xlink="http://www.w3.org/1999/xlink" enable-background="new 0 0 23.6 23.6" viewBox="0 0 23.6 23.6">
    <defs>
        <path id="d4iuq6jp2a" d="M0 0H23.6V23.6H0z"/>
    </defs>
    <clipPath id="es2ycmtc7b">
        <use overflow="visible" xlink:href="#d4iuq6jp2a"/>
    </clipPath>
    <path fill="#FFFFFF" d="M23.2 11.8c0 6.3-5.1 11.4-11.4 11.4C5.5 23.2.4 18.1.4 11.8S5.5.4 11.8.4c6.3 0 11.4 5.1 11.4 11.4" clip-path="url(#es2ycmtc7b)"/>
    <circle cx="11.8" cy="11.8" r="11.4" fill="none" stroke="#0080BC" stroke-miterlimit="10" stroke-width="0.75" clip-path="url(#es2ycmtc7b)"/>
    <path fill="#0080BC" d="M15.7 9.6h-.4c-.2-.1-.3-.3-.3-.5s.1-.4.3-.5h.4c.2.1.3.3.3.5.1.2-.1.4-.3.5m.7 7.9H16v-7.3c.4-.2.8-.6.8-1.1 0-.5-.3-.9-.8-1.1V6.1h.4c.2 0 .3-.1.3-.3 0-.2-.1-.3-.3-.3H14.6c-.2 0-.3.1-.3.3 0 .2.1.3.3.3h.4V8c-.4.2-.8.6-.8 1.1 0 .5.3.9.8 1.1v7.3h-.5c-.2 0-.3.1-.3.3 0 .2.1.3.3.3H16.3c.2 0 .3-.1.3-.3.1-.2 0-.3-.2-.3M12 15.2h-.4c-.2-.1-.3-.3-.3-.5s.1-.4.3-.5h.4c.2.1.3.3.3.5s-.1.4-.3.5m.7 2.3h-.5v-1.7c.4-.2.8-.6.8-1.1 0-.5-.3-.9-.8-1.1V6.1h.4c.2 0 .4-.1.4-.3 0-.2-.1-.3-.3-.3H10.9c-.2 0-.3.1-.3.3 0 .2.1.3.3.3h.4v7.5c-.4.2-.8.6-.8 1.1 0 .5.3.9.8 1.1v1.7h-.5c-.2 0-.3.1-.3.3 0 .2.1.3.3.3H12.6c.2 0 .3-.1.3-.3.1-.2 0-.3-.2-.3M8.3 11.4h-.4c-.2-.1-.3-.3-.3-.5s.1-.4.3-.5h.4c.2.1.3.3.3.5 0 .3-.1.5-.3.5m.7 6.1h-.5v-5.4c.5-.2.8-.6.8-1.1 0-.5-.3-.9-.8-1.1V6.1h.4c.2 0 .3-.1.3-.3 0-.2-.1-.3-.3-.3H7.2c-.2 0-.3.1-.3.3 0 .2.1.3.3.3h.4v3.7c-.4.2-.7.6-.7 1.2 0 .5.3.9.8 1.1v5.4h-.5c-.2 0-.3.1-.3.3 0 .2.1.3.3.3H9c.2 0 .3-.1.3-.3 0-.2-.2-.3-.3-.3" clip-path="url(#es2ycmtc7b)"/>
</svg>
