<svg xmlns="http://www.w3.org/2000/svg" xmlns:xlink="http://www.w3.org/1999/xlink" enable-background="new 0 0 23.6 23.6" viewBox="0 0 23.6 23.6">
    <defs>
        <path id="e26cps6bya" d="M0 0H23.6V23.5H0z"/>
    </defs>
    <clipPath id="181osxk1ob">
        <use overflow="visible" xlink:href="#e26cps6bya"/>
    </clipPath>
    <path fill="#FFFFFF" d="M23.2 11.8c0 6.3-5.1 11.4-11.4 11.4C5.5 23.2.4 18.1.4 11.8S5.5.4 11.8.4c6.3 0 11.4 5.1 11.4 11.4" clip-path="url(#181osxk1ob)"/>
    <circle cx="11.8" cy="11.8" r="11.4" fill="none" stroke="#0080BC" stroke-miterlimit="10" stroke-width="0.755" clip-path="url(#181osxk1ob)"/>
    <path fill="#0080BC" d="M18.9 17l-.8-.8c-.1-.1-.2-.1-.3 0-.1.1-.1.2 0 .3l.4.4H5.9l2.3-2.3c.1-.1.1-.2 0-.3-.1-.1-.2-.1-.3 0l-2.3 2.3V6.8l.4.4s.1.1.2.1.1 0 .2-.1.1-.2 0-.3l-.9-.8c0-.1-.2-.1-.3 0l-.8.8c-.1.1-.1.3 0 .3 0 0 .1.1.2.1s.1 0 .2-.1l.4-.4v10.5c0 .1.1.1.1.1h12.9l-.4.4c-.1.1-.1.2 0 .3 0 0 .1.1.2.1s.1 0 .2-.1l.8-.8s0-.2-.1-.3M8.1 6.8c0 .2.2.4.4.4s.4-.2.4-.4-.2-.4-.4-.4c-.2.1-.4.2-.4.4M12.3 8.5c0 .2.2.4.4.4s.4-.2.4-.4-.2-.4-.4-.4-.4.2-.4.4M15.8 5.1c0 .2.2.4.4.4s.4-.2.4-.4-.2-.4-.4-.4c-.3 0-.4.1-.4.4" clip-path="url(#181osxk1ob)"/>
    <path fill="#0080BC" d="M17.4 15.2l-.2.2V8.1l.2-.2v7.3zm-2.1-6.9h1.4v7.5h-1.4V8.3zm.6-.7h1.2l-.2.2h-1.2l.2-.2zm1.9-.3s0-.1 0 0c0-.1 0-.1 0 0v-.1H16c-.1 0-.1 0-.2.1l-.7.7v8c0 .1.1.2.2.2h1.8l.7-.7s.1-.1.1-.2l-.1-8M13.9 15.2l-.2.2v-3.9l.2-.2v3.9zm-2.1-3.5h1.4v4.1h-1.4v-4.1zm.6-.7h1.2l-.2.2h-1.2l.2-.2zm2-.3s0-.1 0 0c0-.1 0-.1 0 0v-.1h-1.8c-.1 0-.1 0-.2.1l-.7.7V16c0 .1.1.2.2.2h1.8l.7-.7s.1-.1.1-.2l-.1-4.6M10.4 15.2l-.2.2V9.9l.2-.2v5.5zM8.3 10h1.4v5.7H8.3V10zm.6-.7h1.2l-.2.3H8.7l.2-.3zm2-.2c0-.1 0-.1 0 0 0-.1 0-.1 0 0 0-.1 0-.1 0 0V9H8.8c-.1 0-.1 0-.2.1l-.6.5V16c0 .1.1.2.2.2H10l.7-.7s.1-.1.1-.2l.1-6.2M9.4 6h-.2l-.3-.4H8c-.1 0-.2-.1-.2-.2s.1-.2.2-.2h1c.1 0 .1 0 .2.1l.4.4c.1.1.1.2 0 .3h-.2M17 4.2c-.1 0-.1 0-.2-.1l-.4-.4h-.9c-.1 0-.2-.1-.2-.2s.1-.2.2-.2h1c.1 0 .1 0 .2.1l.4.4c.1.1.1.2 0 .3.1.1 0 .1-.1.1" clip-path="url(#181osxk1ob)"/>
</svg>
