<svg xmlns="http://www.w3.org/2000/svg" xmlns:xlink="http://www.w3.org/1999/xlink" enable-background="new 0 0 23.6 23.6" viewBox="0 0 23.6 23.6">
    <defs>
        <path id="qhvqmaxoqa" d="M0 0H23.6V23.6H0z"/>
    </defs>
    <clipPath id="2sxjntfdmb">
        <use overflow="visible" xlink:href="#qhvqmaxoqa"/>
    </clipPath>
    <path fill="#FFFFFF" d="M23.2 11.8c0 6.3-5.1 11.4-11.4 11.4S.4 18.1.4 11.8 5.5.4 11.8.4s11.4 5.1 11.4 11.4" clip-path="url(#2sxjntfdmb)"/>
    <circle cx="11.8" cy="11.8" r="11.4" fill="none" stroke="#0080BC" stroke-miterlimit="10" stroke-width="0.75" clip-path="url(#2sxjntfdmb)"/>
    <path fill="none" stroke="#0080BC" stroke-miterlimit="10" stroke-width="0.5" d="M5 14.1v-1.3h1.9l-1.3-1.3L10.1 7l.6.6V4.9H7.9l.6.6-6.1 6.1L5 14.1zm10.7-3.5h2.7V7.8l-.6.6-6.1-6.1L9.2 5h1.5v1.7l1.1-1.1 4.5 4.5-.6.5zm-2.9 5v2.7h2.7l-.6-.6 6.1-6.1-2.5-2.5v1.4h-1.7l1.1 1.1-4.5 4.5-.6-.5zm-1.1-1.9c-1.1 0-1.9-.9-1.9-1.9 0-1.1.9-1.9 1.9-1.9s1.9.9 1.9 1.9c.1 1.1-.8 1.9-1.9 1.9m3.3-2l-.1-.9-.4.1c-.2-.4-.4-.8-.7-1.2l.2-.4-.8-.6-.3.4c-.3-.2-.7-.2-1.1-.3v-.6l-.9.1V9c-.4.1-.8.4-1.1.7l-.6-.4-.6.8.5.4c-.2.3-.3.7-.3 1.1l-.7.1.1.9.8-.1c.1.4.3.8.6 1.1l-.4.5.8.6.3-.4c.3.2.7.3 1.1.4v.5l.9-.1v-.4c.5-.1 1-.3 1.4-.7l.3.2.6-.8-.3-.2c.2-.4.3-.9.3-1.3l.4-.2zm-7.3 1.2H5v2.7l.6-.6 6.1 6.1 2.7-2.7h-1.6v-1.5L11.7 18l-4.5-4.5.5-.6z" clip-path="url(#2sxjntfdmb)"/>
</svg>
