<svg xmlns="http://www.w3.org/2000/svg" xmlns:xlink="http://www.w3.org/1999/xlink"><defs><symbol viewBox="0 0 23.6 23.6" id="clocks"><defs><path id="clocks_a" d="M.1 0h23.6v23.6H.1z" /></defs><path d="M23.3 11.8c0 6.3-5.1 11.4-11.4 11.4C5.6 23.2.5 18.1.5 11.8S5.6.4 11.9.4c6.3 0 11.4 5.1 11.4 11.4" clip-path="url(#clocks_b)" /><circle cx="11.9" cy="11.8" r="11.4" stroke-miterlimit="10" stroke-width=".75" clip-path="url(#clocks_b)" /><path d="M15.6 18.1c-2.6 0-4.7-2.1-4.7-4.7 0-2.5 1.9-4.5 4.3-4.7h.8c2.4.2 4.3 2.2 4.3 4.7.1 2.6-2.1 4.7-4.7 4.7m-.2-10.6h.5v.6h-.4v-.6zm-1-.7c0-.1.1-.2.2-.2h2.2c.1 0 .2.1.2.2s-.1.2-.2.2h-2.1c-.2-.1-.3-.2-.3-.2m2.1 1.3v-.6h.2c.4 0 .8-.3.8-.8 0-.4-.3-.8-.8-.8h-2.2c-.4 0-.8.4-.8.8s.3.8.8.8h.2v.6c-2.5.4-4.5 2.6-4.5 5.3 0 2.9 2.4 5.3 5.3 5.3s5.3-2.4 5.3-5.3c.2-2.6-1.8-4.8-4.3-5.3" clip-path="url(#clocks_b)" /><path d="M10.3 13.7l-.7-.5c-.1-.1-.2-.1-.3 0-.1.1-.2.1-.4.2-.1 0-.2.1-.2.2L8.5 15H7.4l-.2-1.4c0-.1-.1-.2-.2-.2s-.3-.1-.4-.2c-.1-.1-.2 0-.3 0l-1.2.9c-.1-.1-.2-.3-.4-.4-.1-.1-.2-.3-.4-.4l.9-1.2c.1-.1.1-.2 0-.3-.1-.1-.1-.3-.2-.4 0-.1-.1-.2-.2-.2L3.4 11V9.9l1.4-.2c.1 0 .2-.1.2-.2s.1-.3.2-.4c.1-.1 0-.2 0-.3l-.8-1.2c.1-.1.2-.3.3-.4.2-.1.3-.2.4-.3l1.2.9c.1.1.2.1.3 0 .2-.1.3-.2.4-.2.1 0 .2-.1.2-.2L7.4 6h1.1l.2 1.4c0 .1.1.2.2.2s.3.1.4.2c.1.1.2 0 .3 0l1.2-.9c.2.1.3.2.4.3.1.1.2.3.4.4l-.9 1.2c-.1.1-.1.2 0 .3.1.1.1.3.2.4 0 .1.1.2.2.2l.6.1c.2-.2.4-.4.6-.5l-.9-.1v-.1l.9-1.2c.1-.1.1-.3 0-.4-.2-.2-.4-.5-.5-.6-.2-.2-.4-.4-.6-.5-.1-.1-.3-.1-.4 0l-1.4.7h-.1l-.2-1.5c0-.1-.1-.2-.3-.3-.6-.1-1.1-.1-1.7 0-.1 0-.2.1-.2.3l-.3 1.5h-.1l-1.2-.9c-.1-.1-.3-.1-.4 0l-.6.6-.6.6c-.1.1-.1.3 0 .4L4.6 9v.1l-1.5.3c-.1 0-.2.1-.3.2-.1.6-.1 1.1 0 1.7 0 .1.1.2.3.3l1.5.2v.1l-.9 1.2c-.1.1-.1.3 0 .4.2.2.4.5.6.6.2.2.4.4.6.5.1.1.3.1.4 0l1.2-.9h.1l.2 1.5c0 .1.1.2.3.3.3 0 .6.1.8.1.3 0 .6 0 .8-.1.1 0 .2-.1.3-.3l.2-1.5h.1l1 .7c.1-.1 0-.4 0-.7" clip-path="url(#clocks_b)" /><path d="M9.2 11.7c-.3.3-.8.5-1.2.5-.5 0-.9-.2-1.2-.5-.7-.7-.7-1.8 0-2.4.3-.4.7-.6 1.2-.6s.9.2 1.2.5c.7.7.7 1.8 0 2.5M8 8.1c-.6 0-1.2.2-1.7.7-.9.9-.9 2.4 0 3.3.4.4 1 .7 1.7.7.6 0 1.2-.2 1.7-.7.9-.9.9-2.4 0-3.3-.5-.4-1.1-.7-1.7-.7m7.1 1.9c-.2 0-.4-.1-.4-.4 0-.2.1-.4.3-.5.2 0 .4.1.5.4 0 .2-.1.4-.4.5m2.2.3h-.2c-.2-.1-.3-.3-.2-.6.1-.2.3-.3.5-.2.2.1.3.3.2.5 0 .2-.2.3-.3.3m-4.2.6c-.1 0-.2 0-.3-.1-.1-.2-.1-.4 0-.6.2-.1.4-.1.6.1.1.2.1.4-.1.6 0-.1-.1 0-.2 0m5.8.8c-.1 0-.3-.1-.3-.2-.1-.2-.1-.4.1-.6.2-.1.4-.1.6.1.1.2.1.4-.1.6-.1.1-.2.1-.3.1m-7 1h-.1c-.2-.1-.3-.3-.3-.5.1-.2.3-.3.5-.3.2.1.3.3.3.5-.1.2-.2.3-.4.3m7.6 1.1c-.2 0-.4-.2-.4-.4s.2-.4.4-.4.4.2.4.4c.1.2-.1.4-.4.4m-7.6 1.1c-.2 0-.3-.1-.4-.3-.1-.2.1-.5.3-.5.2-.1.4 0 .5.3.1.2-.1.5-.3.5h-.1m7 1c-.1 0-.2 0-.2-.1-.2-.1-.2-.4-.1-.6.1-.2.4-.3.6-.1.2.1.3.4.1.6-.1.2-.2.2-.4.2m-5.8.9c-.1 0-.2 0-.3-.1-.2-.1-.2-.4 0-.6.1-.2.4-.2.6 0 .2.2.2.4 0 .6-.1 0-.2.1-.3.1m4.2.6c-.2 0-.3-.1-.4-.3-.1-.2 0-.5.2-.5.2-.1.5 0 .6.2.1.2 0 .4-.2.5-.1.1-.2.1-.2.1m-2.2.3c-.3 0-.5-.2-.4-.5 0-.2.2-.4.5-.4.2 0 .4.2.3.5 0 .2-.2.4-.4.4m.5-3.9c-.2 0-.4-.2-.4-.4s.2-.4.4-.4.4.2.4.4-.1.4-.4.4m2.6-.7h-1.6c-.1-.4-.5-.7-.9-.7-.5 0-1 .4-1 1 0 .5.4 1 1 1 .4 0 .8-.3.9-.7h1.6c.2 0 .3-.1.3-.3 0-.2-.2-.3-.3-.3" clip-path="url(#clocks_b)" /></symbol><clipPath id="clocks_b"><use overflow="visible" xlink:href="#clocks_a" /></clipPath><symbol viewBox="0 0 23.6 23.6" id="devices"><defs><path id="devices_a" d="M0 0h23.6v23.6H0z" /></defs><path d="M23.2 11.8c0 6.3-5.1 11.4-11.4 11.4S.4 18.1.4 11.8 5.5.4 11.8.4s11.4 5.1 11.4 11.4" clip-path="url(#devices_b)" /><circle cx="11.8" cy="11.8" r="11.4" stroke-miterlimit="10" stroke-width=".75" clip-path="url(#devices_b)" /><path stroke-linecap="round" stroke-linejoin="round" stroke-miterlimit="10" stroke-width=".5" d="M17.6 15.4v-4.9c0-.5-.4-.8-.8-.8h-.3c-.5 0-.8.4-.8.8v2c-.1 0-.1-.1-.2-.1V9.7c0-.5-.4-.8-.8-.8h-.3c-.5 0-.8.4-.8.8V12h-.1V9c0-.5-.4-.8-.8-.8h-.3c-.5 0-.8.4-.8.8v3.5c-.1 0-.1.1-.2.1V5.2c0-.5-.4-.8-.8-.8h-.3c-.5 0-.8.4-.8.8V14L8 13c-.4-.2-1.1-.6-1.6 0s-.1 1 .6 1.8 2.3 3 3.2 3.8c.8 1.1 2.1 1.8 3.5 1.8 2.4 0 4.3-1.9 4.3-4.2-.3-.3-.3-.5-.4-.8zM9.3 7.3C8.5 7 8 6.2 8 5.3 8 4 9 3 10.3 3s2.2 1 2.2 2.3c0 .9-.5 1.7-1.2 2m-2 .7c-1.2-.4-2-1.5-2-2.8 0-1.6 1.3-2.9 2.9-2.9 1.6 0 2.9 1.3 2.9 2.9 0 1.3-.8 2.4-1.9 2.8" clip-path="url(#devices_b)" /></symbol><clipPath id="devices_b"><use overflow="visible" xlink:href="#devices_a" /></clipPath><symbol viewBox="0 0 23.6 23.6" id="idea"><defs><path id="idea_a" d="M0 0h23.6v23.6H0z" /></defs><path d="M23.2 11.8c0 6.3-5.1 11.4-11.4 11.4S.4 18.1.4 11.8 5.5.4 11.8.4s11.4 5.1 11.4 11.4" clip-path="url(#idea_b)" /><circle cx="11.8" cy="11.8" r="11.4" stroke-miterlimit="10" stroke-width=".75" clip-path="url(#idea_b)" /><path d="M9.4 18.2c.5.4 1.5.6 2.6.6s2.1-.2 2.6-.6c-.1-.6-.3-2.2.4-3.5.2-.4.4-.6.6-.9.6-.8 1.4-1.7 1.4-4.5 0-4.3-4.2-4.5-5-4.5h-.3c-1 0-4.4.3-4.9 4.5 0 .1-.1.7-1.3 2.6 0 0-.1.1-.1.2s.1.1.2.2c.5.3 1.1.5 1.1.5.1 0 .2.2.2.3 0 0-.2 1.5 0 2.2.1.3.7.5 1.7.5h.3c.5 0 .7.3.7.5v1.9zm2.6 1.1c-1.4 0-2.5-.3-3-.8 0 0-.1-.1-.1-.2v-2h-.4c-.8 0-2-.1-2.2-.9-.1-.6 0-1.7 0-2.2l-1-.5c-.3-.2-.4-.4-.4-.5-.1-.3.1-.6.1-.6 1.2-1.8 1.3-2.4 1.3-2.4.5-4.6 4.2-4.9 5.4-4.9h.4c.6 0 5.5.1 5.5 5 0 2.9-.8 3.9-1.5 4.7-.2.3-.4.5-.6.8-.7 1.6-.3 3.3-.3 3.3 0 .1 0 .2-.1.2-.6.7-1.7 1-3.1 1" clip-path="url(#idea_b)" /><path d="M14 11.1c-.3.6-.5 1.2-.6 1.8H13c0-.3.1-.7.2-1.1.1-.6.2-1.1.2-1.4 0-.4-.2-.5-.3-.5-.2 0-.3.1-.5.3-.2.2-.4.4-.7.4-.2 0-.5-.2-.7-.4 0-.2-.2-.4-.3-.4-.1 0-.3.1-.3.5 0 .3.1.9.3 1.4.1.4.2.8.2 1.1h-.4c-.1-.6-.3-1.2-.6-1.8-.3-.6-.5-1.3-.5-1.8 0-1.4 1.2-2.6 2.6-2.6s2.6 1.1 2.6 2.6c-.2.6-.5 1.2-.8 1.9m-2.9-.5c.2.2.6.5.9.5.4 0 .7-.3.9-.5 0 .3-.1.7-.2 1.1-.1.4-.2.9-.2 1.2h-1c0-.3-.1-.7-.2-1.2-.1-.4-.2-.8-.2-1.1m.9-4.4c-1.7 0-3.1 1.4-3.1 3.1 0 .7.3 1.4.6 2 .3.6.5 1.3.5 1.8 0 .1.1.3.3.3h3.4c.1 0 .3-.1.3-.3 0-.6.3-1.2.6-1.9s.6-1.3.6-2c-.1-1.6-1.5-3-3.2-3m1.5 8.1h-2.9c-.1 0-.3-.1-.3-.3 0-.1.1-.3.3-.3h2.9c.1 0 .3.1.3.3-.1.2-.2.3-.3.3m-.3 1h-2.5c-.1 0-.3-.1-.3-.3 0-.1.1-.3.3-.3h2.5c.1 0 .3.1.3.3 0 .2-.1.3-.3.3m-.2.9h-2c-.1 0-.3-.1-.3-.3 0-.1.1-.3.3-.3h2c.1 0 .3.1.3.3-.1.2-.2.3-.3.3" clip-path="url(#idea_b)" /></symbol><clipPath id="idea_b"><use overflow="visible" xlink:href="#idea_a" /></clipPath><symbol viewBox="0 0 23.6 23.6" id="info"><defs><path id="info_a" d="M0 0h23.6v23.6H0z" /></defs><path d="M23.2 11.8c0 6.3-5.1 11.4-11.4 11.4S.4 18.1.4 11.8 5.5.4 11.8.4s11.4 5.1 11.4 11.4" clip-path="url(#info_b)" /><circle cx="11.8" cy="11.8" r="11.4" stroke-miterlimit="10" stroke-width=".75" clip-path="url(#info_b)" /><path d="M16.1 15.6c1.6-1.1 2.5-2.6 2.5-4.3S17.7 8 16.1 7c2.1.8 3.6 2.4 3.6 4.3s-1.5 3.5-3.6 4.3m-3.8.5c-.3 0-.6.1-1 .1-1 0-2-.2-2.9-.5-.4-.2-.8-.3-1.1-.6h-.1l-2.6 1.1 1.1-2.5C5.1 12.6 5 12 5 11.3 5 9.4 6.4 7.7 8.5 7c.9-.3 1.8-.5 2.8-.5.3 0 .6 0 1 .1 3.1.3 5.4 2.4 5.4 4.8.1 2.3-2.3 4.3-5.4 4.7m1-10.5h-1.9c-4 0-7.3 2.6-7.3 5.7 0 .7.2 1.4.5 2.1l-1.5 3.4c-.1.2 0 .4.1.5.1.1.2.1.3.1h.2L7.1 16c1.2.7 2.7 1.1 4.3 1.1h1.9c4 0 7.3-2.6 7.3-5.7 0-3.3-3.3-5.8-7.3-5.8" clip-path="url(#info_b)" /><path d="M12.1 13.3c0-.1-.1-.2-.1-.4V10h-1.6v.8c.1 0 .1 0 .1.1s.1.2.1.3v1.7c0 .3-.1.5-.2.5v.8h1.8v-.8s0-.1-.1-.1m-1.3-3.9c.1 0 .1.1.2.1h.8c.1 0 .2 0 .2-.1v-.5c0-.2 0-.3-.1-.4-.1-.1-.3-.1-.6-.1h-.4c-.1 0-.2 0-.2.1-.1 0-.1.1-.1.2v.6c.1 0 .1.1.2.1" clip-path="url(#info_b)" /></symbol><clipPath id="info_b"><use overflow="visible" xlink:href="#info_a" /></clipPath><symbol viewBox="0 0 23.6 23.6" id="pazzle"><defs><path id="pazzle_a" d="M0 0h23.6v23.6H0z" /></defs><path d="M23.2 11.8c0 6.3-5.1 11.4-11.4 11.4S.4 18.1.4 11.8 5.5.4 11.8.4s11.4 5.1 11.4 11.4" clip-path="url(#pazzle_b)" /><circle cx="11.8" cy="11.8" r="11.4" stroke-miterlimit="10" stroke-width=".75" clip-path="url(#pazzle_b)" /><path d="M5.5 8.3c-.2 0-.3.1-.3.3 0 .2.1.3.3.3.2 0 .3-.1.3-.3-.1-.2-.2-.3-.3-.3m0-1.6c-.2 0-.3.2-.3.3 0 .2.1.3.3.3.2 0 .3-.1.3-.3-.1-.1-.2-.3-.3-.3m0 3.2c-.2 0-.3.1-.3.3 0 .2.1.3.3.3.2 0 .3-.1.3-.3-.1-.2-.2-.3-.3-.3m0-4.7c-.2 0-.3.1-.3.3 0 .2.1.3.3.3h.1c.1 0 .2-.1.2-.3-.1-.2-.2-.3-.3-.3m3.1 0c-.2 0-.3.1-.3.3 0 .2.1.3.3.3.2 0 .3-.1.3-.3 0-.2-.1-.3-.3-.3m1.6 0c-.2 0-.3.1-.3.3 0 .2.1.3.3.3.2 0 .3-.1.3-.3 0-.2-.1-.3-.3-.3m-3.1 0c-.2 0-.3.1-.3.3 0 .2.1.3.3.3.2 0 .3-.1.3-.3-.1-.2-.2-.3-.3-.3m10.8 6.3h-1.5c-.1 0-.1 0-.2.1s-.1.3 0 .4c.2.3.3.6.3.9 0 .8-.7 1.5-1.5 1.5s-1.5-.7-1.5-1.5c0-.3.1-.7.3-.9.1-.1.1-.3 0-.4-.1 0-.1-.1-.2-.1h-1.5v-1c.3.1.5.2.8.2 1.1 0 2.1-.9 2.1-2.1s-.9-2.1-2.1-2.1c-.3 0-.6.1-.8.2v-1h5.8v5.8zm0 6.4h-5.8v-1.5c0-.1 0-.1-.1-.2s-.3-.1-.4 0c-.3.2-.6.3-.9.3-.8 0-1.5-.7-1.5-1.5s.7-1.5 1.5-1.5c.3 0 .7.1.9.3.1.1.3.1.4 0 0-.1.1-.1.1-.2v-1.5h1c-.1.3-.2.5-.2.8 0 1.1.9 2.1 2.1 2.1 1.1 0 2.1-.9 2.1-2.1 0-.3-.1-.6-.2-.8h1v5.8zm-6.4 0H5.7v-5.8h1.5c.1 0 .1 0 .2-.1s.1-.3 0-.4c-.2-.3-.3-.6-.3-.9 0-.8.7-1.5 1.5-1.5s1.5.7 1.5 1.5c0 .3-.1.7-.3.9-.1.1-.1.3 0 .4.1 0 .1.1.2.1h1.5v1c-.3-.1-.5-.2-.8-.2-1.1 0-2.1.9-2.1 2.1 0 1.1.9 2.1 2.1 2.1.3 0 .6-.1.8-.2v1zm6.6-12.7h-6.3c-.2 0-.3.1-.3.3v1.7c0 .1 0 .1.1.2s.3.1.4 0c.3-.2.6-.3.9-.3.8 0 1.5.7 1.5 1.5s-.7 1.5-1.5 1.5c-.3 0-.7-.1-.9-.3-.1-.1-.3-.1-.4 0 0 .1-.1.1-.1.2v1.5h-1c.1-.3.2-.5.2-.8 0-1.1-.9-2.1-2.1-2.1-1.1 0-2.1.9-2.1 2.1 0 .3.1.6.2.8H5.5c-.2 0-.3.1-.3.3v6.3c0 .2.1.3.3.3h12.6c.2 0 .3-.1.3-.3V5.4c0-.1-.1-.2-.3-.2" clip-path="url(#pazzle_b)" /></symbol><clipPath id="pazzle_b"><use overflow="visible" xlink:href="#pazzle_a" /></clipPath><symbol viewBox="0 0 23.6 23.6" id="questions"><defs><path id="questions_a" d="M0 0h23.6v23.6H0z" /></defs><path d="M23.2 11.8c0 6.3-5.1 11.4-11.4 11.4S.4 18.1.4 11.8 5.5.4 11.8.4s11.4 5.1 11.4 11.4" clip-path="url(#questions_b)" /><circle cx="11.8" cy="11.8" r="11.4" stroke-miterlimit="10" stroke-width=".75" clip-path="url(#questions_b)" /><path stroke-linecap="round" stroke-miterlimit="10" stroke-width=".5" d="M15.3 17l-1.7-.8.8-1.4 1.7.8-.8 1.4zm-.4-3.2c.3-.5.6-.8.9-1 .3-.2.8-.3 1.4-.4.4-.1.7-.2 1-.4.3-.2.5-.4.7-.7.2-.3.2-.6.2-.9-.1-.3-.3-.5-.6-.7-.3-.1-.6-.2-.9-.1-.3.1-.5.2-.7.6l-1.6-.8c.4-.7.9-1.1 1.6-1.2.7-.1 1.5 0 2.3.4.9.4 1.4 1 1.7 1.6.3.7.2 1.3-.2 2.1-.3.5-.6.8-1.1 1.1-.5.3-1.1.4-1.6.5-.3.1-.6.1-.8.3-.2.1-.3.4-.5.7l-1.8-1.1zm-5.5 2.4l-1.7.8-.7-1.4 1.7-.8.7 1.4zm-2.9-1.6c-.3-.5-.4-.9-.3-1.3 0-.3.2-.8.5-1.3.2-.3.3-.7.3-1 0-.3 0-.6-.2-.9-.1-.3-.3-.5-.6-.6-.3-.1-.6-.1-1 .1-.3.1-.5.3-.6.6-.1.3-.1.5.1.9l-1.7.6c-.4-.7-.4-1.4-.1-2 .3-.6.9-1.1 1.7-1.5.8-.3 1.6-.4 2.4-.3.7.2 1.3.7 1.6 1.4.2.5.3 1 .2 1.5-.1.5-.3 1-.6 1.5-.2.3-.2.6-.2.8 0 .2.1.5.3.8l-1.8.7zm6 .5h-1.9v-1.5h1.9v1.5zm-1.9-2.5c0-.6.1-1 .3-1.3.2-.3.5-.6 1.1-1 .3-.2.6-.5.7-.8.2-.2.3-.5.3-.9s-.1-.7-.3-.9c-.2-.2-.5-.3-.9-.3-.3 0-.6.1-.8.3-.2.2-.3.4-.3.8h-2c0-.8.3-1.4.8-1.8.6-.5 1.3-.7 2.2-.7 1 0 1.7.2 2.3.7.6.5.8 1.1.8 1.9 0 .5-.2 1-.5 1.5-.3.4-.7.8-1.2 1.1-.3.2-.4.4-.5.6-.1.2-.1.5-.1.8h-1.9z" clip-path="url(#questions_b)" /></symbol><clipPath id="questions_b"><use overflow="visible" xlink:href="#questions_a" /></clipPath><symbol viewBox="0 0 23.6 23.6" id="repair"><defs><path id="repair_a" d="M0 0h23.6v23.6H0z" /></defs><path d="M23.2 11.8c0 6.3-5.1 11.4-11.4 11.4S.4 18.1.4 11.8 5.5.4 11.8.4s11.4 5.1 11.4 11.4" clip-path="url(#repair_b)" /><circle cx="11.8" cy="11.8" r="11.4" stroke-miterlimit="10" stroke-width=".75" clip-path="url(#repair_b)" /><path d="M18.5 16.5l-1.9-1.9c-.1-.1-.2-.1-.3-.1l-1.4.5c-.1 0-.2.1-.2.2l-.5 1.5c0 .1 0 .2.1.3l1.9 1.9h-.1c-.7 0-1.3-.3-1.8-.8-.6-.7-.9-1.6-.6-2.5 0-.1 0-.2-.1-.3l-4.9-5c-.1-.1-.2-.1-.3-.1-.2.1-.5.1-.7.1-.7 0-1.3-.3-1.8-.7-.5-.5-.8-1.2-.7-2l1.8 2c.1.1.2.1.3.1l1.4-.5c.1 0 .2-.1.2-.2l.5-1.5c0-.1 0-.2-.1-.3L7.5 5.3c.7 0 1.4.2 1.9.7.6.7.9 1.6.6 2.5 0 .1 0 .2.1.3l4.9 5c.1.1.2.1.3.1.2-.1.5-.1.7-.1.7 0 1.3.3 1.8.7.5.6.7 1.3.7 2M16 13.2c-.2 0-.5 0-.7.1l-4.6-4.7c.2-1.1-.1-2.2-.8-3-.7-.6-1.5-1-2.3-1-.3 0-.6 0-.9.1-.1.1-.2.2-.2.3 0 .1 0 .2.1.3l2.2 2.2-.4 1.1-1.1.4-2.2-2.2c-.1-.1-.2-.1-.3-.1-.1 0-.2.1-.2.2-.3 1.1 0 2.3.8 3.2.6.6 1.4.9 2.2.9.2 0 .5 0 .7-.1l4.6 4.7c-.2 1.1.1 2.2.8 3 .6.6 1.4.9 2.2.9.3 0 .6 0 .9-.1.1 0 .2-.1.2-.2s0-.2-.1-.3l-2.2-2.2.4-1.1 1.1-.4 2.2 2.2c.1.1.2.1.3.1.1 0 .2-.1.2-.2.3-1.1 0-2.3-.8-3.2-.5-.6-1.3-.9-2.1-.9" clip-path="url(#repair_b)" /><path d="M11.4 12.5c-.3-.3-.5-.6-.6-.8.2.1.5.3.8.6.3.3.5.6.6.8-.2-.1-.4-.3-.8-.6m-4.7 6.4c-.1 0-.4-.2-.7-.4l5.2-5.3c.2.2.4.4.7.5l-5.2 5.2zm-1.6-1.6l5.2-5.3c.1.2.3.5.5.7L5.6 18c-.3-.3-.5-.6-.5-.7m5.6-6.3c-.2 0-.3.1-.4.1l-5.7 5.8c-.4.4.1 1.2.7 1.8.4.4 1 .9 1.4.9.1 0 .3 0 .4-.1l5.7-5.8c.4-.4-.1-1.2-.7-1.8-.4-.5-1-.9-1.4-.9" clip-path="url(#repair_b)" /><path d="M17.2 6.9l-.3-.3.7-1.1.8.8-1.2.6zm.5-2.2c-.1-.1-.2-.1-.3-.1-.1 0-.2.1-.2.2l-1 1.7c-.1.1-.1.3 0 .4l-5 5.2.6.6 5-5.2c.1.1.1.1.2.1h.2l1.7-1 .2-.2c0-.1 0-.2-.1-.3l-1.3-1.4z" clip-path="url(#repair_b)" /></symbol><clipPath id="repair_b"><use overflow="visible" xlink:href="#repair_a" /></clipPath><symbol viewBox="0 0 23.6 23.6" id="slider"><defs><path id="slider_a" d="M0 0h23.6v23.6H0z" /></defs><path d="M23.2 11.8c0 6.3-5.1 11.4-11.4 11.4C5.5 23.2.4 18.1.4 11.8S5.5.4 11.8.4c6.3 0 11.4 5.1 11.4 11.4" clip-path="url(#slider_b)" /><circle cx="11.8" cy="11.8" r="11.4" stroke-miterlimit="10" stroke-width=".75" clip-path="url(#slider_b)" /><path d="M15.7 9.6h-.4c-.2-.1-.3-.3-.3-.5s.1-.4.3-.5h.4c.2.1.3.3.3.5.1.2-.1.4-.3.5m.7 7.9H16v-7.3c.4-.2.8-.6.8-1.1 0-.5-.3-.9-.8-1.1V6.1h.4c.2 0 .3-.1.3-.3 0-.2-.1-.3-.3-.3h-1.8c-.2 0-.3.1-.3.3 0 .2.1.3.3.3h.4V8c-.4.2-.8.6-.8 1.1 0 .5.3.9.8 1.1v7.3h-.5c-.2 0-.3.1-.3.3 0 .2.1.3.3.3h1.8c.2 0 .3-.1.3-.3.1-.2 0-.3-.2-.3M12 15.2h-.4c-.2-.1-.3-.3-.3-.5s.1-.4.3-.5h.4c.2.1.3.3.3.5s-.1.4-.3.5m.7 2.3h-.5v-1.7c.4-.2.8-.6.8-1.1 0-.5-.3-.9-.8-1.1V6.1h.4c.2 0 .4-.1.4-.3 0-.2-.1-.3-.3-.3h-1.8c-.2 0-.3.1-.3.3 0 .2.1.3.3.3h.4v7.5c-.4.2-.8.6-.8 1.1 0 .5.3.9.8 1.1v1.7h-.5c-.2 0-.3.1-.3.3 0 .2.1.3.3.3h1.8c.2 0 .3-.1.3-.3.1-.2 0-.3-.2-.3m-4.4-6.1h-.4c-.2-.1-.3-.3-.3-.5s.1-.4.3-.5h.4c.2.1.3.3.3.5 0 .3-.1.5-.3.5m.7 6.1h-.5v-5.4c.5-.2.8-.6.8-1.1 0-.5-.3-.9-.8-1.1V6.1h.4c.2 0 .3-.1.3-.3 0-.2-.1-.3-.3-.3H7.2c-.2 0-.3.1-.3.3 0 .2.1.3.3.3h.4v3.7c-.4.2-.7.6-.7 1.2 0 .5.3.9.8 1.1v5.4h-.5c-.2 0-.3.1-.3.3 0 .2.1.3.3.3H9c.2 0 .3-.1.3-.3 0-.2-.2-.3-.3-.3" clip-path="url(#slider_b)" /></symbol><clipPath id="slider_b"><use overflow="visible" xlink:href="#slider_a" /></clipPath><symbol viewBox="0 0 23.6 23.6" id="statistics"><defs><path id="statistics_a" d="M0 0h23.6v23.5H0z" /></defs><path d="M23.2 11.8c0 6.3-5.1 11.4-11.4 11.4C5.5 23.2.4 18.1.4 11.8S5.5.4 11.8.4c6.3 0 11.4 5.1 11.4 11.4" clip-path="url(#statistics_b)" /><circle cx="11.8" cy="11.8" r="11.4" stroke-miterlimit="10" stroke-width=".755" clip-path="url(#statistics_b)" /><path d="M18.9 17l-.8-.8c-.1-.1-.2-.1-.3 0-.1.1-.1.2 0 .3l.4.4H5.9l2.3-2.3c.1-.1.1-.2 0-.3-.1-.1-.2-.1-.3 0l-2.3 2.3V6.8l.4.4s.1.1.2.1.1 0 .2-.1.1-.2 0-.3l-.9-.8c0-.1-.2-.1-.3 0l-.8.8c-.1.1-.1.3 0 .3 0 0 .1.1.2.1s.1 0 .2-.1l.4-.4v10.5c0 .1.1.1.1.1h12.9l-.4.4c-.1.1-.1.2 0 .3 0 0 .1.1.2.1s.1 0 .2-.1l.8-.8s0-.2-.1-.3M8.1 6.8c0 .2.2.4.4.4s.4-.2.4-.4-.2-.4-.4-.4c-.2.1-.4.2-.4.4m4.2 1.7c0 .2.2.4.4.4s.4-.2.4-.4-.2-.4-.4-.4-.4.2-.4.4m3.5-3.4c0 .2.2.4.4.4s.4-.2.4-.4-.2-.4-.4-.4c-.3 0-.4.1-.4.4" clip-path="url(#statistics_b)" /><path d="M17.4 15.2l-.2.2V8.1l.2-.2v7.3zm-2.1-6.9h1.4v7.5h-1.4V8.3zm.6-.7h1.2l-.2.2h-1.2l.2-.2zm1.9-.3s0-.1 0 0c0-.1 0-.1 0 0v-.1H16c-.1 0-.1 0-.2.1l-.7.7v8c0 .1.1.2.2.2h1.8l.7-.7s.1-.1.1-.2l-.1-8m-3.9 7.9l-.2.2v-3.9l.2-.2v3.9zm-2.1-3.5h1.4v4.1h-1.4v-4.1zm.6-.7h1.2l-.2.2h-1.2l.2-.2zm2-.3s0-.1 0 0c0-.1 0-.1 0 0v-.1h-1.8c-.1 0-.1 0-.2.1l-.7.7V16c0 .1.1.2.2.2h1.8l.7-.7s.1-.1.1-.2l-.1-4.6m-4 4.5l-.2.2V9.9l.2-.2v5.5zM8.3 10h1.4v5.7H8.3V10zm.6-.7h1.2l-.2.3H8.7l.2-.3zm2-.2c0-.1 0-.1 0 0 0-.1 0-.1 0 0 0-.1 0-.1 0 0V9H8.8c-.1 0-.1 0-.2.1l-.6.5V16c0 .1.1.2.2.2H10l.7-.7s.1-.1.1-.2l.1-6.2M9.4 6h-.2l-.3-.4H8c-.1 0-.2-.1-.2-.2s.1-.2.2-.2h1c.1 0 .1 0 .2.1l.4.4c.1.1.1.2 0 .3h-.2M17 4.2c-.1 0-.1 0-.2-.1l-.4-.4h-.9c-.1 0-.2-.1-.2-.2s.1-.2.2-.2h1c.1 0 .1 0 .2.1l.4.4c.1.1.1.2 0 .3.1.1 0 .1-.1.1" clip-path="url(#statistics_b)" /></symbol><clipPath id="statistics_b"><use overflow="visible" xlink:href="#statistics_a" /></clipPath><symbol viewBox="0 0 23.6 23.6" id="women-working"><defs><path id="women-working_a" d="M0 0h23.6v23.6H0z" /></defs><path d="M23.2 11.8c0 6.3-5.1 11.4-11.4 11.4S.4 18.1.4 11.8 5.5.4 11.8.4s11.4 5.1 11.4 11.4" clip-path="url(#women-working_b)" /><circle cx="11.8" cy="11.8" r="11.4" stroke-miterlimit="10" stroke-width=".75" clip-path="url(#women-working_b)" /><path stroke-miterlimit="10" stroke-width=".5" d="M5 14.1v-1.3h1.9l-1.3-1.3L10.1 7l.6.6V4.9H7.9l.6.6-6.1 6.1L5 14.1zm10.7-3.5h2.7V7.8l-.6.6-6.1-6.1L9.2 5h1.5v1.7l1.1-1.1 4.5 4.5-.6.5zm-2.9 5v2.7h2.7l-.6-.6 6.1-6.1-2.5-2.5v1.4h-1.7l1.1 1.1-4.5 4.5-.6-.5zm-1.1-1.9c-1.1 0-1.9-.9-1.9-1.9 0-1.1.9-1.9 1.9-1.9s1.9.9 1.9 1.9c.1 1.1-.8 1.9-1.9 1.9m3.3-2l-.1-.9-.4.1c-.2-.4-.4-.8-.7-1.2l.2-.4-.8-.6-.3.4c-.3-.2-.7-.2-1.1-.3v-.6l-.9.1V9c-.4.1-.8.4-1.1.7l-.6-.4-.6.8.5.4c-.2.3-.3.7-.3 1.1l-.7.1.1.9.8-.1c.1.4.3.8.6 1.1l-.4.5.8.6.3-.4c.3.2.7.3 1.1.4v.5l.9-.1v-.4c.5-.1 1-.3 1.4-.7l.3.2.6-.8-.3-.2c.2-.4.3-.9.3-1.3l.4-.2zm-7.3 1.2H5v2.7l.6-.6 6.1 6.1 2.7-2.7h-1.6v-1.5L11.7 18l-4.5-4.5.5-.6z" clip-path="url(#women-working_b)" /></symbol><clipPath id="women-working_b"><use overflow="visible" xlink:href="#women-working_a" /></clipPath></defs></svg>