<svg xmlns="http://www.w3.org/2000/svg" xmlns:xlink="http://www.w3.org/1999/xlink" enable-background="new 0 0 23.6 23.6" viewBox="0 0 23.6 23.6">
    <defs>
        <path id="52bl1p003a" d="M0 0H23.6V23.6H0z"/>
    </defs>
    <clipPath id="dna3ycolcb">
        <use overflow="visible" xlink:href="#52bl1p003a"/>
    </clipPath>
    <path fill="#FFFFFF" d="M23.2 11.8c0 6.3-5.1 11.4-11.4 11.4S.4 18.1.4 11.8 5.5.4 11.8.4s11.4 5.1 11.4 11.4" clip-path="url(#dna3ycolcb)"/>
    <circle cx="11.8" cy="11.8" r="11.4" fill="none" stroke="#0080BC" stroke-miterlimit="10" stroke-width="0.75" clip-path="url(#dna3ycolcb)"/>
    <path fill="#0080BC" d="M5.5 8.3c-.2 0-.3.1-.3.3 0 .2.1.3.3.3.2 0 .3-.1.3-.3-.1-.2-.2-.3-.3-.3M5.5 6.7c-.2 0-.3.2-.3.3 0 .2.1.3.3.3.2 0 .3-.1.3-.3-.1-.1-.2-.3-.3-.3M5.5 9.9c-.2 0-.3.1-.3.3 0 .2.1.3.3.3.2 0 .3-.1.3-.3-.1-.2-.2-.3-.3-.3M5.5 5.2c-.2 0-.3.1-.3.3 0 .2.1.3.3.3h.1c.1 0 .2-.1.2-.3-.1-.2-.2-.3-.3-.3M8.6 5.2c-.2 0-.3.1-.3.3 0 .2.1.3.3.3.2 0 .3-.1.3-.3 0-.2-.1-.3-.3-.3M10.2 5.2c-.2 0-.3.1-.3.3 0 .2.1.3.3.3.2 0 .3-.1.3-.3 0-.2-.1-.3-.3-.3M7.1 5.2c-.2 0-.3.1-.3.3 0 .2.1.3.3.3.2 0 .3-.1.3-.3-.1-.2-.2-.3-.3-.3M17.9 11.5h-1.5c-.1 0-.1 0-.2.1s-.1.3 0 .4c.2.3.3.6.3.9 0 .8-.7 1.5-1.5 1.5s-1.5-.7-1.5-1.5c0-.3.1-.7.3-.9.1-.1.1-.3 0-.4-.1 0-.1-.1-.2-.1h-1.5v-1c.3.1.5.2.8.2 1.1 0 2.1-.9 2.1-2.1s-.9-2.1-2.1-2.1c-.3 0-.6.1-.8.2v-1h5.8v5.8zm0 6.4h-5.8v-1.5c0-.1 0-.1-.1-.2s-.3-.1-.4 0c-.3.2-.6.3-.9.3-.8 0-1.5-.7-1.5-1.5s.7-1.5 1.5-1.5c.3 0 .7.1.9.3.1.1.3.1.4 0 0-.1.1-.1.1-.2v-1.5h1c-.1.3-.2.5-.2.8 0 1.1.9 2.1 2.1 2.1 1.1 0 2.1-.9 2.1-2.1 0-.3-.1-.6-.2-.8h1v5.8zm-6.4 0H5.7v-5.8h1.5c.1 0 .1 0 .2-.1s.1-.3 0-.4c-.2-.3-.3-.6-.3-.9 0-.8.7-1.5 1.5-1.5s1.5.7 1.5 1.5c0 .3-.1.7-.3.9-.1.1-.1.3 0 .4.1 0 .1.1.2.1h1.5v1c-.3-.1-.5-.2-.8-.2-1.1 0-2.1.9-2.1 2.1 0 1.1.9 2.1 2.1 2.1.3 0 .6-.1.8-.2v1zm6.6-12.7h-6.3c-.2 0-.3.1-.3.3v1.7c0 .1 0 .1.1.2s.3.1.4 0c.3-.2.6-.3.9-.3.8 0 1.5.7 1.5 1.5s-.7 1.5-1.5 1.5c-.3 0-.7-.1-.9-.3-.1-.1-.3-.1-.4 0 0 .1-.1.1-.1.2v1.5h-1c.1-.3.2-.5.2-.8 0-1.1-.9-2.1-2.1-2.1-1.1 0-2.1.9-2.1 2.1 0 .3.1.6.2.8H5.5c-.2 0-.3.1-.3.3v6.3c0 .2.1.3.3.3h12.6c.2 0 .3-.1.3-.3V5.4c0-.1-.1-.2-.3-.2" clip-path="url(#dna3ycolcb)"/>
</svg>
